<mxfile host="app.diagrams.net" modified="2023-05-11T13:14:19.643Z" agent="Mozilla/5.0 (Windows NT 10.0; Win64; x64) AppleWebKit/537.36 (KHTML, like Gecko) Chrome/113.0.0.0 Safari/537.36" version="21.2.9" etag="DkZiZezPx3ttp3i7qVsr" type="github">
  <diagram name="Pagina-1" id="H9MB-rJ6zWbWkaNWB4v-">
    <mxGraphModel>
      <root>
        <mxCell id="0" />
        <mxCell id="1" parent="0" />
      </root>
    </mxGraphModel>
  </diagram>
</mxfile>
